<?xml version="1.0" standalone="no"?>
<!DOCTYPE svg PUBLIC "-//W3C//DTD SVG 20010904//EN"
 "http://www.w3.org/TR/2001/REC-SVG-20010904/DTD/svg10.dtd">
<svg version="1.0" xmlns="http://www.w3.org/2000/svg"
 width="609.000000pt" height="609.000000pt" viewBox="0 0 609.000000 609.000000"
 preserveAspectRatio="xMidYMid meet">
<metadata>
Created by potrace 1.11, written by Peter Selinger 2001-2013
</metadata>
<g transform="translate(0.000000,609.000000) scale(0.100000,-0.100000)"
fill="#000000" stroke="none">
<path d="M0 3045 l0 -3045 3045 0 3045 0 0 3045 0 3045 -3045 0 -3045 0 0
-3045z m3108 200 c45 -27 82 -104 82 -170 0 -119 -85 -208 -202 -212 -50 -1
-64 2 -105 31 -54 37 -76 70 -94 138 -23 85 26 189 109 229 41 20 166 11 210
-16z m364 -424 c4 -4 2 -22 -5 -40 -9 -27 -9 -35 1 -38 6 -3 12 -13 12 -24 0
-14 -7 -19 -30 -19 -19 0 -30 -5 -30 -14 0 -14 -27 -28 -60 -31 -8 -1 -23 -2
-33 -3 -10 -1 -21 -10 -25 -21 -8 -22 -96 -91 -116 -91 -21 0 -78 -32 -103
-57 -12 -13 -31 -23 -42 -23 -11 0 -36 -9 -55 -21 -19 -11 -40 -18 -46 -14 -5
3 -10 -1 -10 -9 0 -11 -10 -16 -31 -16 -17 0 -28 -4 -24 -10 8 -13 -10 -13
-49 0 -17 5 -52 14 -78 21 l-48 12 0 58 c0 41 4 59 13 59 8 0 7 4 -3 10 -8 5
-10 10 -5 10 6 0 11 9 11 20 0 11 -5 20 -11 21 -5 0 12 11 39 25 59 29 69 30
39 5 -12 -10 -19 -21 -16 -25 4 -3 0 -6 -8 -6 -12 0 -11 -2 1 -10 13 -9 13
-11 0 -20 -11 -7 -11 -10 -2 -10 7 0 10 -4 7 -10 -3 -5 -1 -10 4 -10 6 0 11
-4 11 -10 0 -5 -9 -10 -20 -10 -11 0 -20 -4 -20 -10 0 -6 29 -9 69 -7 66 2 79
16 16 17 -23 0 -27 3 -15 10 12 8 11 10 -7 10 -20 0 -23 5 -23 40 0 40 2 42
46 43 16 0 20 5 17 18 -4 14 0 19 17 19 14 0 24 8 27 21 4 16 13 20 37 18 17
-2 60 1 96 5 36 4 69 7 74 6 5 -1 13 6 18 15 7 11 16 14 31 9 12 -3 19 -3 15
1 -10 11 61 45 94 45 15 0 28 4 28 8 0 11 66 40 100 45 29 4 82 -3 92 -12z
m138 -51 c0 -5 -7 -10 -15 -10 -8 0 -15 -6 -15 -13 0 -7 -18 -18 -40 -24 -32
-8 -40 -8 -40 3 0 8 7 14 15 14 8 0 23 9 32 20 18 21 63 28 63 10z m-885 -140
c-3 -5 -12 -10 -18 -10 -7 0 -6 4 3 10 19 12 23 12 15 0z m15 -240 c0 -5 -4
-10 -10 -10 -5 0 -10 5 -10 10 0 6 5 10 10 10 6 0 10 -4 10 -10z m40 -20 c0
-5 -7 -7 -15 -4 -8 4 -15 8 -15 10 0 2 7 4 15 4 8 0 15 -4 15 -10z"/>
</g>
</svg>
